<?xml version="1.0" encoding="utf-8"?>
<!-- Generator: Adobe Illustrator 25.2.0, SVG Export Plug-In . SVG Version: 6.00 Build 0)  -->
<svg version="1.1" id="Layer_1" xmlns="http://www.w3.org/2000/svg" xmlns:xlink="http://www.w3.org/1999/xlink" x="0px" y="0px"
	 viewBox="0 0 512 512" style="enable-background:new 0 0 512 512;" xml:space="preserve">
<style type="text/css">
	.st0{fill:#FFFFFF;}
</style>
<path class="st0" d="M256,502c-65.7,0-127.5-25.6-173.9-72.1C35.6,383.5,10,321.7,10,256c0-65.7,25.6-127.5,72.1-173.9
	C128.5,35.6,190.3,10,256,10c65.7,0,127.5,25.6,173.9,72.1C476.4,128.5,502,190.3,502,256c0,65.7-25.6,127.5-72.1,173.9
	S321.7,502,256,502z M256,32.7C132.9,32.7,32.7,132.9,32.7,256c0,123.1,100.2,223.3,223.3,223.3c123.1,0,223.3-100.2,223.3-223.3
	C479.3,132.9,379.1,32.7,256,32.7z"/>
<path class="st0" d="M213.3,374c-3,0-5.9-1.2-8-3.3c-2.1-2.1-3.3-5-3.3-8s1.2-5.9,3.3-8L304,256l-98.7-98.7c-2.1-2.1-3.3-5-3.3-8
	s1.2-5.9,3.3-8c2.1-2.1,5-3.3,8-3.3s5.9,1.2,8,3.3L328,248c4.4,4.4,4.4,11.6,0,16L221.3,370.7C219.2,372.8,216.4,374,213.3,374z"/>
</svg>
